HIERARCHY
ROOT Hips
{
	OFFSET 0.00000 0.00000 0.00000
	CHANNELS 6 Xposition Yposition Zposition Zrotation Yrotation Xrotation 
	JOINT LHipJoint
	{
		OFFSET 0 0 0
		CHANNELS 3 Zrotation Yrotation Xrotation
		JOINT LeftUpLeg
		{
			OFFSET 1.62329 -1.80800 0.67318
			CHANNELS 3 Zrotation Yrotation Xrotation
			JOINT LeftLeg
			{
				OFFSET 2.57139 -7.06484 0.00000
				CHANNELS 3 Zrotation Yrotation Xrotation
				JOINT LeftFoot
				{
					OFFSET 2.52017 -6.92413 0.00000
					CHANNELS 3 Zrotation Yrotation Xrotation
					JOINT LeftToeBase
					{
						OFFSET 0.23295 -0.64001 2.10214
						CHANNELS 3 Zrotation Yrotation Xrotation
						End Site
						{
							OFFSET 0.00000 -0.00000 1.10139
						}
					}
				}
			}
		}
	}
	JOINT RHipJoint
	{
		OFFSET 0 0 0
		CHANNELS 3 Zrotation Yrotation Xrotation
		JOINT RightUpLeg
		{
			OFFSET -1.48061 -1.80800 0.67318
			CHANNELS 3 Zrotation Yrotation Xrotation
			JOINT RightLeg
			{
				OFFSET -2.63258 -7.23296 0.00000
				CHANNELS 3 Zrotation Yrotation Xrotation
				JOINT RightFoot
				{
					OFFSET -2.54779 -7.00000 0.00000
					CHANNELS 3 Zrotation Yrotation Xrotation
					JOINT RightToeBase
					{
						OFFSET -0.23067 -0.63376 2.12161
						CHANNELS 3 Zrotation Yrotation Xrotation
						End Site
						{
							OFFSET -0.00000 -0.00000 1.11000
						}
					}
				}
			}
		}
	}
	JOINT LowerBack
	{
		OFFSET 0 0 0
		CHANNELS 3 Zrotation Yrotation Xrotation
		JOINT Spine
		{
			OFFSET -0.02108 2.07573 -0.16981
			CHANNELS 3 Zrotation Yrotation Xrotation
			JOINT Spine1
			{
				OFFSET 0.05070 2.08439 -0.03141
				CHANNELS 3 Zrotation Yrotation Xrotation
				JOINT Neck
				{
					OFFSET 0 0 0
					CHANNELS 3 Zrotation Yrotation Xrotation
					JOINT Neck1
					{
						OFFSET -0.10731 1.60408 0.31370
						CHANNELS 3 Zrotation Yrotation Xrotation
						JOINT Head
						{
							OFFSET 0.08411 1.65679 -0.30822
							CHANNELS 3 Zrotation Yrotation Xrotation
							End Site
							{
								OFFSET 0.03911 1.69149 -0.14146
							}
						}
					}
				}
				JOINT LeftShoulder
				{
					OFFSET 0 0 0
					CHANNELS 3 Zrotation Yrotation Xrotation
					JOINT LeftArm
					{
						OFFSET 3.52315 0.73219 -0.54694
						CHANNELS 3 Zrotation Yrotation Xrotation
						JOINT LeftForeArm
						{
							OFFSET 5.32462 -0.00000 -0.00000
							CHANNELS 3 Zrotation Yrotation Xrotation
							JOINT LeftHand
							{
								OFFSET 3.48402 -0.00000 -0.00000
								CHANNELS 3 Zrotation Yrotation Xrotation
								JOINT LeftFingerBase
								{
									OFFSET 0 0 0
									CHANNELS 3 Zrotation Yrotation Xrotation
									JOINT LeftHandIndex1
									{
										OFFSET 0.57248 -0.00000 -0.00000
										CHANNELS 3 Zrotation Yrotation Xrotation
										End Site
										{
											OFFSET 0.46154 -0.00000 -0.00000
										}
									}
								}
								JOINT LThumb
								{
									OFFSET 0 0 0
									CHANNELS 3 Zrotation Yrotation Xrotation
									End Site
									{
										OFFSET 0.46859 -0.00000 0.46859
									}
								}
							}
						}
					}
				}
				JOINT RightShoulder
				{
					OFFSET 0 0 0
					CHANNELS 3 Zrotation Yrotation Xrotation
					JOINT RightArm
					{
						OFFSET -3.41766 0.93592 -0.10019
						CHANNELS 3 Zrotation Yrotation Xrotation
						JOINT RightForeArm
						{
							OFFSET -5.33589 -0.00000 -0.00000
							CHANNELS 3 Zrotation Yrotation Xrotation
							JOINT RightHand
							{
								OFFSET -3.64134 -0.00000 -0.00000
								CHANNELS 3 Zrotation Yrotation Xrotation
								JOINT RightFingerBase
								{
									OFFSET 0 0 0
									CHANNELS 3 Zrotation Yrotation Xrotation
									JOINT RightHandIndex1
									{
										OFFSET -0.73481 -0.00000 -0.00000
										CHANNELS 3 Zrotation Yrotation Xrotation
										End Site
										{
											OFFSET -0.59242 -0.00000 -0.00000
										}
									}
								}
								JOINT RThumb
								{
									OFFSET 0 0 0
									CHANNELS 3 Zrotation Yrotation Xrotation
									End Site
									{
										OFFSET -0.60147 -0.00000 0.60147
									}
								}
							}
						}
					}
				}
			}
		}
	}
}
MOTION
Frames: 6
Frame Time: .0083333
-0.724 17.9076 -1.4481 0 0 0 0 0 0 -21 0 0 0 0 0 0 0 0 0 0 0 0 0 0 21 0 0 0 0 0 0 0 0 0 0 0 0 0 0 0 0 0 0 0 0 0 0 -16 0 0 21 0 0 11 0 0 0 -8 0 0 0 0 0 0 0 0 0 0 0 0 0 0 0 0 0 0 0 0 8 0 0 0 0 0 0 0 0 0 0 0 0 0 0 0 0 0
-0.7240 17.9076 -1.4481 1.2758 -7.3988 6.2306 0.0000 0.0000 0.0000 -20.0135 -6.0434 -6.5007 1.2248 7.0192 19.7721 0.2920 10.1190 -18.3727 0.8026 -5.7179 -15.9680 0.0000 0.0000 0.0000 16.1071 11.3644 -14.9155 -2.7101 -10.2103 29.6606 -0.9741 2.0155 -18.0846 -0.3162 -3.6148 9.9953 -2.4750 -1.2235 1.9958 1.9900 -1.6657 -1.3943 3.5042 -0.7727 -2.4230 -13.1350 -9.8707 -17.5473 6.4921 -11.6854 20.3830 2.6755 -5.6877 10.6237 0.0000 -0.0000 0.0000 -90.0757 1.9724 2.3032 14.8411 -23.9243 -3.1612 -0.0000 -0.0000 12.5535 8.8803 28.8452 4.3108 -7.1250 0.0000 -0.0000 -24.1326 57.4423 -7.6514 0.0000 -0.0000 0.0000 86.0802 -0.3325 19.0414 -16.0846 25.6352 -3.6825 0.0000 0.0000 22.9460 -21.9432 -0.1488 0.0600 7.1250 -0.0000 -0.0000 3.6482 -30.1299 1.3264
-0.6982 17.9093 -1.4619 1.3462 -7.3092 6.2929 0.0000 0.0000 0.0000 -20.1427 -6.0467 -6.6905 1.2294 7.0319 19.8098 0.3032 9.9373 -18.3026 0.7769 -5.6276 -15.7077 0.0000 0.0000 0.0000 15.9175 11.3095 -15.0739 -2.7106 -10.2111 29.6629 -0.9691 2.0036 -18.0391 -0.3173 -3.6210 10.0128 -2.5910 -1.2605 1.9763 1.9813 -1.7185 -1.3350 3.5607 -0.7996 -2.3438 -13.0392 -9.8783 -17.8476 6.4056 -11.6634 20.4728 2.6219 -5.6722 10.6972 0.0000 0.0000 0.0000 -90.0480 1.8092 2.4030 14.7413 -23.7845 -3.1209 -0.0000 -0.0000 11.8914 8.9092 29.3048 4.3875 -7.1250 0.0000 -0.0000 -24.4458 57.8640 -8.0115 0.0000 0.0000 0.0000 86.0106 -0.1193 19.0061 -16.0256 25.5554 -3.6570 0.0000 0.0000 22.9187 -21.7699 -0.0587 0.0235 7.1250 -0.0000 -0.0000 3.7810 -30.0322 1.3837
-0.6719 17.9104 -1.4716 1.4107 -7.3113 6.3202 0.0000 0.0000 0.0000 -20.3038 -6.0890 -6.7610 1.2290 7.0310 19.8071 0.2977 9.9679 -18.2716 0.7862 -5.6605 -15.8024 0.0000 0.0000 0.0000 15.7356 11.2913 -15.1787 -2.7128 -10.2150 29.6758 -0.9613 1.9783 -17.9702 -0.3125 -3.5939 9.9369 -2.6827 -1.2244 1.9321 1.9691 -1.6725 -1.3760 3.5977 -0.7742 -2.3628 -13.2026 -9.8795 -17.7081 6.5085 -11.6724 20.5832 2.6867 -5.6815 10.7313 -0.0000 0.0000 0.0000 -90.0448 1.9198 2.5171 14.7166 -23.7498 -3.1109 -0.0000 -0.0000 11.8961 8.8964 29.3644 4.3893 -7.1250 0.0000 -0.0000 -24.5038 57.9149 -8.0626 -0.0000 0.0000 0.0000 85.9196 -0.2160 18.8361 -15.9936 25.5120 -3.6432 0.0000 0.0000 22.9113 -21.6121 0.0184 -0.0073 7.1250 -0.0000 -0.0000 3.9020 -29.9486 1.4360
-0.6443 17.9126 -1.4775 1.4092 -7.3363 6.2722 0.0000 0.0000 0.0000 -20.4106 -6.0787 -6.7415 1.2291 7.0312 19.8077 0.2955 9.9899 -18.2707 0.7698 -5.6025 -15.6354 0.0000 0.0000 0.0000 15.6421 11.3330 -15.1311 -2.7140 -10.2171 29.6826 -0.9632 1.9186 -18.0016 -0.2875 -3.4480 9.5286 -2.6902 -1.1839 1.9666 1.9783 -1.6191 -1.3876 3.6109 -0.7465 -2.3981 -13.3728 -9.8862 -17.5346 6.6109 -11.6886 20.6322 2.7529 -5.6953 10.7378 0.0000 -0.0000 0.0000 -90.0686 2.0004 2.4049 14.6914 -23.7145 -3.1008 -0.0000 -0.0000 12.1986 9.5054 28.1743 4.5203 -7.1250 0.0000 -0.0000 -23.0255 56.9623 -7.0028 0.0000 -0.0000 0.0000 85.8429 -0.3420 18.5969 -15.9815 25.4955 -3.6380 0.0000 0.0000 22.9959 -21.6465 0.1675 -0.0665 7.1250 -0.0000 -0.0000 3.8688 -29.7887 1.4385
-0.6157 17.9137 -1.4815 1.4665 -7.3162 6.2064 0.0000 0.0000 0.0000 -20.5775 -5.9975 -6.7235 1.2255 7.0211 19.7780 0.2918 9.9337 -18.1644 0.7691 -5.6000 -15.6282 0.0000 0.0000 0.0000 15.4812 11.3613 -15.0562 -2.7181 -10.2240 29.7053 -0.9672 1.8933 -18.0467 -0.2831 -3.4220 9.4560 -2.7186 -1.1685 1.9906 1.9519 -1.6005 -1.3558 3.5990 -0.7377 -2.3804 -13.3781 -9.8961 -17.5098 6.5587 -11.6920 20.6490 2.7352 -5.7038 10.7367 -0.0000 0.0000 0.0000 -90.0794 2.0352 2.4705 14.6839 -23.7039 -3.0978 -0.0000 -0.0000 11.8320 9.7625 28.1958 4.6476 -7.1250 0.0000 -0.0000 -22.7829 57.0353 -6.9645 -0.0000 0.0000 0.0000 85.7759 -0.4035 18.4990 -15.9500 25.4528 -3.6244 0.0000 0.0000 22.9857 -21.8249 0.3040 -0.1217 7.1250 -0.0000 -0.0000 3.7234 -29.6426 1.3972
